# xmcd
#
# Track frame offsets:
# 150
# 22965
# 44142
# 60350
# 82627
# 103645
# 124655
# 155082
# 171685
# 195032
#
# Disc length: 2741 seconds
#
#
# Revision: 0
# Processed by: cddbd v1.5.1PL2 Copyright (c) Steve Scherf et al.
# Submitted via: FreeRIP 2.943 
#
DISCID=770ab30a
DTITLE=Ben James - A Life Of Its Own
DYEAR=1996
DGENRE=Country
TTITLE0=A Life Of Its Own
TTITLE1=The Thorny Rose
TTITLE2=We All Fall Down
TTITLE3=Leaving In The Morning
TTITLE4=Star Child
TTITLE5=November's Through
TTITLE6=Sunrise
TTITLE7=Blind Side
TTITLE8=The Fire In Your Soul
TTITLE9=Metaphysics Queen
EXTD=
EXTT0=
EXTT1=
EXTT2=
EXTT3=
EXTT4=
EXTT5=
EXTT6=
EXTT7=
EXTT8=
EXTT9=
PLAYORDER=
